<svg width="84" height="112" viewBox="0 0 84 112" fill="none" xmlns="http://www.w3.org/2000/svg">
    <path d="M79.1079 42.1569H9.73291C8.24041 42.1569 6.80978 42.7494 5.75416 43.805C4.70041 44.8587 4.10791 46.2894 4.10791 47.7819V59.0319H79.1079V42.1569Z" fill="url(#paint0_linear_1850_8700)" />
    <path d="M4.10791 49.0681H79.1079V52.5612H4.10791V49.0681Z" fill="url(#paint1_linear_1850_8700)" />
    <path d="M79.1081 40.43C79.1081 38.9394 78.5156 37.5087 77.46 36.4531C76.4044 35.3994 74.9737 34.805 73.4831 34.805C66.7687 34.805 55.7081 34.805 49.7869 34.805C47.3737 34.805 45.2306 36.3444 44.4581 38.63C43.3744 41.8419 42 45.9069 42 45.9069H79.1081V40.43Z" fill="url(#paint2_linear_1850_8700)" />
    <path d="M83.773 60.1887C84.1105 58.025 83.4843 55.82 82.0593 54.155C80.6343 52.49 78.553 51.5319 76.3611 51.5319C59.8218 51.5319 24.178 51.5319 7.63863 51.5319C5.44676 51.5319 3.36551 52.49 1.94051 54.155C0.515507 55.82 -0.110744 58.025 0.226756 60.1887C2.13551 72.3987 5.57051 94.385 7.25801 105.189C7.82988 108.841 10.9743 111.532 14.6699 111.532H69.3299C73.0255 111.532 76.1699 108.841 76.7418 105.189C78.4293 94.385 81.8643 72.3987 83.773 60.1887Z" fill="url(#paint3_linear_1850_8700)" />
    <path d="M0.226756 60.1887L1.18863 66.3387C0.849257 64.1731 1.59363 61.9681 3.01863 60.3031C4.44363 58.6381 6.52488 57.68 8.71676 57.68H75.283C77.4749 57.68 79.5561 58.6381 80.9811 60.3031C82.4061 61.9681 83.1505 64.1731 82.8111 66.3387L83.773 60.1887C84.1105 58.025 83.4843 55.82 82.0593 54.155C80.6343 52.49 78.553 51.5319 76.3611 51.5319C59.8218 51.5319 24.178 51.5319 7.63863 51.5319C5.44676 51.5319 3.36551 52.49 1.94051 54.155C0.515507 55.82 -0.110744 58.025 0.226756 60.1887Z" fill="#ECF4FE" />
    <path d="M37.7153 96.245C37.7153 94.175 36.0372 92.495 33.9653 92.495C29.8047 92.495 23.1278 92.495 18.9653 92.495C16.8953 92.495 15.2153 94.175 15.2153 96.245V99.995C15.2153 102.067 16.8953 103.745 18.9653 103.745H33.9653C36.0372 103.745 37.7153 102.067 37.7153 99.995C37.7153 98.7894 37.7153 97.4525 37.7153 96.245Z" fill="url(#paint4_linear_1850_8700)" />
    <path d="M26.1695 44.4237C26.087 43.895 26.0476 43.3737 26.0495 42.86C26.0532 41.8269 25.217 40.9831 24.182 40.9775C23.147 40.9737 22.3032 41.81 22.2995 42.845C22.2957 43.5537 22.3501 44.2756 22.4664 45.0069C22.6257 46.0287 23.5876 46.7281 24.6095 46.5669C25.6314 46.4075 26.3307 45.4456 26.1695 44.4237Z" fill="#4B5563" />
    <path d="M28.1382 37.2369C28.5057 36.8056 28.9182 36.4006 29.3757 36.0219C30.1726 35.3619 30.2851 34.1806 29.6251 33.3819C28.9651 32.585 27.7839 32.4725 26.9851 33.1325C26.357 33.6519 25.7889 34.2125 25.2826 34.805C24.6114 35.5944 24.707 36.7775 25.4945 37.4488C26.282 38.12 27.467 38.0244 28.1382 37.2369Z" fill="#4B5563" />
    <path d="M35.205 33.3162C35.9625 33.1456 36.7613 33.0181 37.5994 32.9337C38.6288 32.8306 39.3806 31.9119 39.2775 30.8825C39.1744 29.8531 38.2556 29.0994 37.2263 29.2025C36.2325 29.3019 35.2838 29.4556 34.3838 29.6581C33.3731 29.885 32.7375 30.8881 32.9644 31.8969C33.1913 32.9075 34.1944 33.5431 35.205 33.3162Z" fill="#4B5563" />
    <path d="M44.8034 32.9263C45.9472 32.9563 47.0328 32.9469 48.0678 32.9038C49.1009 32.8606 49.9053 31.985 49.8622 30.9519C49.8191 29.9188 48.9453 29.1144 47.9103 29.1575C46.9559 29.1969 45.9528 29.2044 44.8991 29.1781C43.8641 29.1519 43.0034 29.9713 42.9772 31.0044C42.9509 32.0394 43.7703 32.9 44.8034 32.9263Z" fill="#4B5563" />
    <path d="M55.815 31.7281C57.0244 31.3775 58.1156 30.9594 59.0944 30.4906C60.0262 30.0425 60.42 28.9213 59.9719 27.9875C59.5237 27.0556 58.4025 26.6619 57.4706 27.11C56.6644 27.4963 55.7662 27.8375 54.7687 28.1281C53.775 28.4169 53.2031 29.4575 53.4919 30.4513C53.7806 31.445 54.8212 32.0169 55.815 31.7281Z" fill="#4B5563" />
    <path d="M64.7289 25.8856C65.6251 24.6069 66.2101 23.2437 66.5326 21.8656C66.7689 20.8569 66.1407 19.8481 65.1339 19.6119C64.127 19.3775 63.1164 20.0037 62.882 21.0106C62.6626 21.9444 62.2651 22.8669 61.6576 23.7331C61.0651 24.5806 61.2695 25.7506 62.117 26.345C62.9645 26.9394 64.1364 26.7331 64.7289 25.8856Z" fill="#4B5563" />
    <path d="M65.8406 14.3431C65.01 12.4063 63.7087 10.775 62.1637 9.71C61.3106 9.12125 60.1425 9.33688 59.5556 10.1881C58.9669 11.0394 59.1825 12.2094 60.0337 12.7963C61.0369 13.4881 61.8562 14.5663 62.3944 15.8225C62.8031 16.775 63.9075 17.2156 64.8581 16.8069C65.8087 16.3981 66.2494 15.2956 65.8406 14.3431Z" fill="#4B5563" />
    <path d="M41.7954 8.80812C43.8242 -2.68001 61.406 -1.93751 51.1704 8.80812H41.7954Z" fill="url(#paint5_linear_1850_8700)" />
    <path d="M41.7954 11.7181C43.8242 23.2044 61.406 22.4637 51.1704 11.7181H41.7954Z" fill="url(#paint6_linear_1850_8700)" />
    <path d="M41.627 12.1569H54.182C55.217 12.1569 56.057 11.3169 56.057 10.2819C56.057 9.24686 55.217 8.40686 54.182 8.40686H41.627C40.5938 8.40686 39.752 9.24686 39.752 10.2819C39.752 11.3169 40.5938 12.1569 41.627 12.1569Z" fill="url(#paint7_linear_1850_8700)" />
    <defs>
        <linearGradient id="paint0_linear_1850_8700" x1="4.10791" y1="46.9194" x2="79.1079" y2="46.9194" gradientUnits="userSpaceOnUse">
            <stop stop-color="#D7E3FD" />
            <stop offset="1" stop-color="#B0C8FB" />
        </linearGradient>
        <linearGradient id="paint1_linear_1850_8700" x1="4.10791" y1="50.8137" x2="79.1079" y2="50.8137" gradientUnits="userSpaceOnUse">
            <stop stop-color="#4B5563" />
            <stop offset="1" stop-color="#8BA0BE" />
        </linearGradient>
        <linearGradient id="paint2_linear_1850_8700" x1="4.5" y1="46.9194" x2="79.5" y2="46.9194" gradientUnits="userSpaceOnUse">
            <stop stop-color="#D7E3FD" />
            <stop offset="1" stop-color="#B0C8FB" />
        </linearGradient>
        <linearGradient id="paint3_linear_1850_8700" x1="0.138631" y1="81.5319" x2="83.863" y2="81.5319" gradientUnits="userSpaceOnUse">
            <stop stop-color="#E9F0FF" />
            <stop offset="1" stop-color="#D0DFFF" />
        </linearGradient>
        <linearGradient id="paint4_linear_1850_8700" x1="15.2172" y1="98.12" x2="37.7172" y2="98.12" gradientUnits="userSpaceOnUse">
            <stop stop-color="#559AFF" />
            <stop offset="1" stop-color="#2E69EF" />
        </linearGradient>
        <linearGradient id="paint5_linear_1850_8700" x1="41.7954" y1="4.63812" x2="54.3485" y2="4.63812" gradientUnits="userSpaceOnUse">
            <stop stop-color="#E9F3FC" />
            <stop offset="1" stop-color="#CADCF0" />
        </linearGradient>
        <linearGradient id="paint6_linear_1850_8700" x1="41.7954" y1="15.8881" x2="54.3485" y2="15.8881" gradientUnits="userSpaceOnUse">
            <stop stop-color="#E9F3FC" />
            <stop offset="1" stop-color="#CADCF0" />
        </linearGradient>
        <linearGradient id="paint7_linear_1850_8700" x1="39.7533" y1="10.2819" x2="56.0583" y2="10.2819" gradientUnits="userSpaceOnUse">
            <stop stop-color="#559AFF" />
            <stop offset="1" stop-color="#2E69EF" />
        </linearGradient>
    </defs>
</svg>
    