<svg className='inline-block' width="48" height="48" viewBox="0 0 48 48" fill="none" xmlns="http://www.w3.org/2000/svg">
  <g clip-path="url(#clip0_1850_1733)">
    <path d="M36.9258 11.0732C35.2728 9.42024 35.2809 6.75127 36.9258 5.10633C38.5202 3.51464 41.3011 3.51605 42.8927 5.10774C44.5323 6.74733 44.5476 9.41555 42.8927 11.0733C41.2461 12.7199 38.5773 12.7248 36.9258 11.0732Z" fill="#1F2937" />
    <path d="M11.0727 36.9269C9.41967 35.2739 9.42773 32.6049 11.0727 30.96C12.6657 29.3683 15.4466 29.3697 17.0396 30.9614C18.6792 32.601 18.6944 35.2693 17.0396 36.927C15.393 38.5735 12.7243 38.5784 11.0727 36.9269Z" fill="#1F2937" />
    <path d="M24 31.0312C20.1232 31.0312 16.9688 27.8768 16.9688 24C16.9688 20.1232 20.1232 16.9688 24 16.9688C27.8768 16.9688 31.0312 20.1232 31.0312 24C31.0312 27.8768 27.8768 31.0312 24 31.0312Z" fill="#1F2937" />
    <path d="M45.1146 12.779C45.0328 12.8696 44.9706 12.9733 44.8837 13.0603C44.272 13.6719 43.5602 14.1409 42.7951 14.4864C44.284 17.4142 45.1875 20.6333 45.1875 24C45.1875 35.6317 35.6317 45.1875 24 45.1875C12.3682 45.1875 2.8125 35.6317 2.8125 24C2.8125 12.3682 12.3682 2.8125 24 2.8125C27.3667 2.8125 30.5857 3.71578 33.5135 5.20481C33.8588 4.44009 34.3273 3.72872 34.9383 3.11775C35.025 3.03122 35.1318 2.96803 35.2231 2.88656C31.7929 1.05319 27.9786 0 24 0C10.8178 0 0 10.8178 0 24C0 37.1822 10.8178 48 24 48C37.1822 48 48 37.1822 48 24C48 20.0223 46.947 16.2088 45.1146 12.779Z" fill="#1F2937" />
    <path d="M34.9383 13.0617C28.9068 7.03021 19.0932 7.03021 13.0617 13.0617C8.89004 17.2334 7.59789 23.3452 9.34304 28.7614C10.0548 28.1192 10.9 27.642 11.8227 27.34C10.6571 23.0517 11.78 18.3206 15.0503 15.0502C19.9858 10.1174 28.0141 10.1174 32.9498 15.0502C37.8826 19.9845 37.8826 28.0155 32.9498 32.9497C29.6878 36.2137 24.9702 37.3397 20.6911 36.1883C20.3811 37.1073 19.8894 37.954 19.2179 38.6852C25.0453 40.5694 31.0227 38.8539 34.9383 34.9384C40.9684 28.9068 40.9684 19.0932 34.9383 13.0617Z" fill="#1F2937" />
  </g>
  <defs>
    <clipPath id="clip0_1850_1733">
      <rect width="48" height="48" fill="white" />
    </clipPath>
  </defs>
</svg>
