<svg width="24" height="24" viewBox="0 0 24 24" fill="none" xmlns="http://www.w3.org/2000/svg">
    <path d="M12.0024 2.89563L6.84183 0.75794C6.66957 0.686644 6.47597 0.686644 6.30371 0.75794C6.13144 0.829284 5.99452 0.966159 5.92318 1.13847L3.82627 6.20088L0.161911 10.619C0.0140208 10.7974 -0.0365105 11.0371 0.0267239 11.26L2.01591 18.2658C2.0746 18.4725 2.22465 18.6411 2.42321 18.7233C2.5096 18.7592 2.60105 18.7769 2.69227 18.7769C2.81068 18.7769 2.92871 18.747 3.03479 18.6879L9.39516 15.1406C9.59747 15.0278 9.73126 14.8226 9.75277 14.5919L10.286 8.8766L12.383 3.81433C12.5316 3.4556 12.3612 3.04427 12.0024 2.89563ZM8.38693 14.0927L4.11568 16.4748L5.93574 12.0807C6.08433 11.722 5.91399 11.3106 5.55521 11.162C5.19647 11.0134 4.7851 11.1837 4.63651 11.5425L2.8164 15.9367L1.4806 11.2319L4.64532 7.41621L6.7464 8.28644L8.84747 9.15672L8.38693 14.0927ZM9.21521 7.78689L6.46711 6.64867L5.35383 6.18757L6.95325 2.32624L10.8146 3.92571L9.21521 7.78689Z" fill="white" />
    <path d="M23.2969 12.8518H15.7657C14.1321 12.8518 12.8031 14.1808 12.8031 15.8144C12.8031 17.4479 14.1321 18.7768 15.7657 18.7768C16.6238 18.7768 17.3219 19.4749 17.3219 20.333C17.3219 21.1912 16.6238 21.8893 15.7657 21.8893H0.703125C0.314812 21.8893 0 22.2041 0 22.5924C0 22.9807 0.314812 23.2956 0.703125 23.2956H15.7657C17.3992 23.2956 18.7281 21.9666 18.7281 20.333C18.7281 18.6995 17.3992 17.3706 15.7657 17.3706C14.9075 17.3706 14.2094 16.6724 14.2094 15.8144C14.2094 14.9562 14.9075 14.2581 15.7657 14.2581H23.2969C23.6852 14.2581 24 13.9432 24 13.5549C24 13.1666 23.6852 12.8518 23.2969 12.8518Z" fill="white" />
</svg>
    